<?xml version="1.0" standalone="no"?>
<!DOCTYPE svg PUBLIC "-//W3C//DTD SVG 20010904//EN"
 "http://www.w3.org/TR/2001/REC-SVG-20010904/DTD/svg10.dtd">
<svg version="1.0" xmlns="http://www.w3.org/2000/svg"
 width="1800.000000pt" height="1125.000000pt" viewBox="0 0 1800.000000 1125.000000"
 preserveAspectRatio="xMidYMid meet">

<g transform="translate(0.000000,1125.000000) scale(0.100000,-0.100000)"
fill="#000000" stroke="none">
<path d="M9634 920 c-79 -14 -173 -52 -237 -94 -100 -66 -162 -148 -321 -418
-73 -125 -93 -151 -129 -173 -84 -48 -182 -26 -242 55 -15 19 -68 98 -119 175
-104 156 -169 223 -254 263 -51 24 -69 27 -167 27 -102 0 -115 -2 -175 -31
-36 -17 -83 -46 -103 -64 -21 -18 -104 -123 -185 -234 -177 -242 -239 -310
-301 -326 -102 -27 -219 38 -259 145 -6 17 -22 68 -35 115 -34 118 -49 150
-88 188 -52 52 -105 75 -184 80 -144 9 -201 -30 -322 -222 -165 -262 -209
-297 -366 -297 -143 0 -209 47 -332 235 -124 190 -205 248 -372 267 -189 22
-321 -33 -429 -179 -132 -178 -175 -207 -314 -207 -75 0 -104 4 -135 20 -59
29 -115 92 -164 186 -62 118 -78 139 -125 160 -58 26 -157 25 -213 -2 -55 -27
-83 -73 -128 -216 -47 -150 -93 -193 -202 -193 -86 0 -128 40 -216 207 -62
115 -92 152 -158 188 -46 25 -68 30 -144 33 -170 7 -243 -42 -340 -228 -75
-144 -105 -184 -157 -212 -56 -29 -175 -31 -228 -4 -73 38 -98 72 -220 298
-105 196 -154 237 -286 238 -56 0 -81 -5 -122 -26 -71 -35 -96 -82 -178 -329
-37 -113 -77 -214 -91 -233 -13 -18 -50 -47 -81 -65 l-57 -32 190 -6 c105 -4
3827 -7 8273 -8 l8082 -1 0 33 c0 44 -14 56 -185 157 -214 127 -328 205 -350
240 -23 36 -102 99 -160 128 -137 67 -324 48 -450 -47 -37 -28 -75 -74 -129
-155 -111 -167 -191 -233 -335 -276 -129 -40 -278 -16 -397 63 -27 17 -179
130 -338 249 -160 120 -314 229 -344 243 -175 83 -402 71 -588 -32 -88 -48
-183 -155 -243 -273 -131 -255 -217 -319 -409 -308 -146 9 -196 46 -378 283
-133 174 -208 263 -253 301 -84 71 -235 105 -377 86 -190 -25 -276 -104 -465
-427 -77 -132 -158 -220 -210 -230 -44 -8 -105 7 -150 38 -35 23 -52 54 -173
307 -77 162 -123 215 -236 269 -74 35 -77 36 -195 35 -163 0 -200 -16 -340
-138 -121 -105 -187 -148 -280 -182 -136 -50 -279 -39 -425 32 -63 31 -91 54
-175 142 -282 297 -322 328 -465 368 -68 18 -248 26 -316 14z"/>
<path d="M663 580 c-98 -20 -164 -72 -230 -178 -26 -42 -55 -88 -66 -102 -24
-32 -130 -109 -244 -177 -101 -60 -128 -85 -120 -108 6 -13 82 -15 671 -15
380 0 667 4 670 9 3 5 -6 12 -22 16 -75 19 -131 83 -212 245 -60 121 -122 213
-163 244 -72 55 -197 84 -284 66z"/>
</g>
</svg>
