<?xml version="1.0" standalone="no"?>
<!DOCTYPE svg PUBLIC "-//W3C//DTD SVG 20010904//EN"
 "http://www.w3.org/TR/2001/REC-SVG-20010904/DTD/svg10.dtd">
<svg version="1.0" xmlns="http://www.w3.org/2000/svg"
 width="1440.000000pt" height="900.000000pt" viewBox="0 0 1440.000000 900.000000"
 preserveAspectRatio="xMidYMid meet">

<g transform="translate(0.000000,900.000000) scale(0.100000,-0.100000)"
fill="#000000" stroke="none">
<path d="M7671 724 c-158 -42 -252 -128 -366 -334 -44 -79 -91 -157 -104 -173
-49 -59 -129 -73 -195 -34 -29 17 -57 53 -122 157 -123 196 -185 247 -325 266
-85 12 -207 -34 -267 -99 -13 -14 -83 -108 -155 -208 -100 -139 -142 -189
-172 -206 -104 -59 -233 2 -264 123 -39 149 -53 185 -85 217 -48 48 -94 67
-165 67 -111 0 -153 -34 -254 -206 -99 -167 -159 -214 -271 -214 -126 0 -191
45 -279 194 -93 155 -171 207 -323 214 -79 4 -98 1 -152 -21 -74 -29 -118 -65
-163 -132 -84 -125 -143 -165 -249 -165 -120 0 -186 50 -254 191 -36 74 -46
87 -86 107 -35 18 -57 22 -98 19 -90 -7 -132 -52 -163 -172 -12 -44 -28 -93
-37 -108 -24 -40 -73 -68 -124 -68 -86 -2 -117 25 -179 151 -45 95 -85 142
-143 172 -55 28 -141 34 -202 14 -82 -27 -117 -64 -179 -191 -56 -114 -79
-142 -141 -166 -46 -17 -128 -12 -173 11 -51 25 -75 58 -151 205 -79 150 -101
180 -152 206 -57 29 -150 24 -201 -11 -49 -34 -68 -71 -121 -243 -25 -81 -52
-160 -61 -177 -20 -38 -75 -82 -122 -97 -29 -9 1504 -12 6595 -12 l6632 -1 0
29 c0 27 -9 35 -97 87 -182 106 -308 186 -317 201 -21 38 -79 91 -125 116 -70
39 -150 52 -225 37 -115 -23 -184 -73 -248 -184 -82 -139 -179 -212 -315 -238
-76 -14 -171 0 -243 37 -26 13 -152 105 -281 204 -129 99 -255 192 -280 205
-183 101 -433 62 -586 -92 -40 -39 -66 -81 -107 -166 -82 -170 -157 -226 -305
-226 -71 0 -141 26 -192 72 -15 12 -81 95 -147 184 -66 88 -141 179 -167 202
-70 62 -141 86 -250 86 -183 0 -272 -67 -410 -309 -114 -202 -168 -245 -266
-216 -69 21 -93 51 -149 188 -78 192 -132 260 -245 308 -62 26 -170 31 -239
11 -75 -22 -95 -35 -187 -122 -167 -157 -355 -194 -543 -106 -77 36 -132 85
-226 201 -101 125 -185 184 -307 216 -71 19 -201 18 -272 -1z"/>
<path d="M517 456 c-74 -20 -127 -65 -168 -140 -20 -36 -46 -77 -59 -91 -26
-28 -126 -96 -222 -151 -44 -25 -68 -45 -68 -56 0 -17 28 -18 553 -17 303 1
539 4 522 8 -87 22 -117 54 -199 219 -31 62 -72 130 -91 151 -65 72 -174 103
-268 77z"/>
</g>
</svg>
